<?xml version="1.0" standalone="no"?>
<!DOCTYPE svg PUBLIC "-//W3C//DTD SVG 20010904//EN"
 "http://www.w3.org/TR/2001/REC-SVG-20010904/DTD/svg10.dtd">
<svg version="1.0" xmlns="http://www.w3.org/2000/svg"
 width="700.000000pt" height="700.000000pt" viewBox="0 0 700.000000 700.000000"
 preserveAspectRatio="xMidYMid meet">
<metadata>
Created by potrace 1.11, written by Peter Selinger 2001-2013
</metadata>
<g transform="translate(0.000000,700.000000) scale(0.100000,-0.100000)"
fill="#000000" stroke="none">
<path d="M3433 6973 c-23 -20 -39 -49 -57 -103 -26 -78 -163 -508 -221 -690
-18 -58 -99 -312 -180 -565 -81 -253 -180 -566 -221 -695 -41 -129 -79 -246
-84 -260 -5 -14 -39 -119 -75 -235 -37 -115 -98 -309 -137 -430 -69 -216 -70
-219 -50 -235 32 -25 441 -311 662 -464 47 -32 126 -87 175 -121 50 -35 127
-89 172 -121 l82 -56 83 56 c46 32 173 120 283 197 110 77 236 165 280 195 44
30 166 115 270 188 216 151 202 126 156 271 -170 532 -264 825 -321 1005 -86
272 -146 458 -171 535 -11 33 -28 87 -38 120 -16 51 -131 413 -283 885 -22 69
-55 175 -74 235 -87 281 -100 303 -180 312 -32 3 -45 -1 -71 -24z"/>
<path d="M2705 6934 c-16 -8 -49 -39 -71 -67 -23 -29 -101 -124 -173 -212
-170 -207 -208 -253 -391 -475 -83 -102 -159 -194 -168 -205 -9 -11 -67 -81
-127 -155 -60 -74 -117 -144 -127 -155 -9 -11 -103 -126 -209 -255 -106 -129
-245 -298 -308 -376 -186 -225 -315 -383 -525 -639 -109 -132 -245 -298 -304
-370 -300 -362 -306 -372 -278 -439 7 -18 26 -43 42 -55 25 -20 37 -22 79 -17
73 8 80 10 320 61 239 50 237 50 310 65 28 6 59 12 70 14 11 3 88 19 170 36
83 17 168 35 190 40 59 14 525 112 560 117 17 2 46 8 65 13 19 5 51 12 70 15
19 3 35 7 35 8 1 4 82 259 128 402 25 77 59 183 75 235 86 273 166 523 187
585 12 39 42 131 65 205 23 74 52 167 65 205 22 67 74 229 235 735 39 124 93
293 120 375 62 193 64 205 46 248 -25 61 -95 89 -151 61z"/>
<path d="M4190 6929 c-67 -41 -68 -94 -7 -284 51 -157 146 -456 309 -965 215
-674 247 -777 298 -935 29 -88 64 -200 80 -250 16 -49 47 -148 70 -220 23 -71
60 -186 82 -255 21 -69 42 -128 46 -132 5 -5 95 -26 202 -48 107 -22 202 -42
210 -45 8 -2 33 -7 55 -10 22 -4 58 -11 80 -17 22 -6 54 -12 70 -15 17 -3 67
-13 112 -24 44 -10 96 -21 115 -24 18 -4 87 -18 153 -32 66 -14 129 -27 140
-29 18 -3 90 -18 140 -28 11 -3 128 -27 259 -55 254 -54 281 -57 319 -40 26
12 64 74 61 99 -1 8 -2 25 -3 37 -1 17 -126 185 -186 249 -5 6 -23 28 -40 49
-16 21 -35 43 -40 49 -6 6 -28 34 -50 61 -22 28 -42 52 -45 55 -3 3 -23 28
-46 55 -22 28 -134 165 -249 305 -115 140 -252 307 -304 370 -103 126 -113
138 -263 321 -57 69 -119 145 -138 169 -19 24 -47 58 -61 75 -14 16 -101 122
-193 235 -93 113 -178 216 -189 230 -12 14 -40 48 -61 75 -22 28 -42 52 -46
55 -3 3 -24 27 -45 55 -33 41 -127 155 -213 260 -133 160 -422 513 -437 533
-24 33 -76 81 -90 83 -42 6 -70 2 -95 -12z"/>
<path d="M2049 3416 c-2 -3 -17 -7 -32 -10 -50 -9 -170 -34 -322 -66 -55 -12
-111 -24 -125 -26 -14 -3 -173 -37 -355 -75 -181 -38 -339 -71 -351 -73 -12
-3 -75 -16 -140 -30 -66 -14 -130 -27 -144 -30 -22 -4 -180 -37 -438 -92 -96
-21 -135 -52 -138 -115 -3 -60 11 -83 107 -169 45 -41 87 -80 93 -85 6 -6 88
-80 181 -165 94 -84 188 -171 210 -191 22 -21 54 -49 70 -64 17 -15 70 -64
119 -109 49 -44 97 -88 106 -96 10 -8 59 -53 110 -100 51 -47 100 -92 110
-100 10 -8 59 -53 110 -100 51 -47 100 -92 110 -100 10 -8 59 -53 110 -100 51
-47 102 -93 114 -103 11 -10 61 -56 111 -102 115 -106 133 -122 229 -209 44
-39 109 -98 145 -132 36 -33 140 -128 231 -210 90 -82 172 -156 180 -164 9 -8
58 -53 110 -100 99 -89 185 -168 230 -210 14 -14 66 -61 115 -105 49 -44 105
-95 124 -113 54 -51 78 -64 120 -69 30 -4 44 1 68 21 17 15 36 39 41 55 7 20
10 450 10 1263 l0 1233 -101 71 c-56 39 -318 222 -582 406 -544 379 -530 370
-536 364z"/>
<path d="M4840 3349 c-52 -38 -131 -93 -175 -123 -44 -30 -163 -113 -265 -185
-102 -71 -236 -165 -298 -208 -62 -43 -141 -98 -177 -123 -35 -25 -93 -65
-129 -90 l-66 -45 1 -1235 c1 -679 4 -1245 7 -1257 12 -38 49 -72 88 -79 43
-8 79 8 134 59 34 32 206 188 284 257 21 19 50 46 65 60 15 14 69 63 120 110
52 47 109 99 126 115 18 17 50 46 71 65 22 19 66 59 99 90 33 30 103 93 154
140 52 47 109 99 127 115 17 17 49 46 70 65 46 41 244 220 260 235 13 12 184
168 269 245 111 101 279 255 300 275 12 11 39 35 61 54 21 19 86 78 144 131
58 53 128 116 155 141 28 24 52 46 55 49 6 7 106 99 230 210 52 47 101 92 110
100 8 8 65 60 125 114 176 160 203 188 210 227 8 45 -14 101 -49 124 -23 15
-97 34 -187 49 -20 3 -42 8 -50 10 -8 3 -26 7 -40 10 -15 2 -80 16 -145 30
-66 14 -130 27 -144 30 -47 8 -185 37 -220 46 -19 5 -51 12 -70 15 -19 3 -64
12 -100 20 -36 8 -132 28 -215 46 -82 17 -157 33 -165 34 -32 7 -416 87 -440
91 -13 3 -56 12 -95 20 -38 9 -81 18 -95 20 -14 3 -29 6 -35 8 -5 1 -53 -28
-105 -65z"/>
</g>
</svg>
